<svg xmlns="http://www.w3.org/2000/svg" width="1920" height="1438.488" viewBox="0 0 1920 1438.488"><g transform="translate(-0.04 -0.04)"><g transform="translate(0.04 0.04)"><path d="M476.958,387.385H353.795c-.24,0-.48,0-.48-.24l-142.85-82.589-115,66.5a1.236,1.236,0,0,1-1.2-2.161l115.721-66.743a1.09,1.09,0,0,1,1.2,0l143.33,82.589H477.2L592.919,318c.24,0,.48-.24.72-.24l90.752,2.641L773.7,268.784a1.236,1.236,0,0,1,1.2,2.161L685.351,322.8c-.24,0-.48.24-.72.24L593.879,320.4l-116.2,66.743C477.438,387.145,477.2,387.385,476.958,387.385Z" transform="translate(131.079 376.226)" fill="#ebebeb"/><path d="M324.341,399.347c-.24,0-.48,0-.48-.24l-128.2-73.946L105.864,377.02a1.236,1.236,0,0,1-1.2-2.161l90.272-52.1a1.091,1.091,0,0,1,1.2,0l128.445,74.186H476.794l114.76-66.263c.24,0,.48-.24.72-.24l90.752,2.641,100.6-58.1a1.236,1.236,0,0,1,1.2,2.161l-100.835,58.34c-.24,0-.48.24-.72.24l-90.752-2.641-114.76,66.263a.839.839,0,0,0-.48.24Z" transform="translate(145.647 384.911)" fill="#ebebeb"/><path d="M477.116,393.478H339.068c-.24,0-.48,0-.48-.24L203.18,314.97,100.664,374.031a1.236,1.236,0,0,1-1.2-2.161l103-59.541a1.09,1.09,0,0,1,1.2,0l135.888,78.508H476.876l115.24-66.5c.24,0,.48-.24.72-.24l90.752,2.641,90.992-52.578c5.042-2.881,5.042-2.881,5.762-1.921a1.444,1.444,0,0,1,.24.96c0,.24-.24.48-.48.72-.24,0-95.313,54.979-95.313,54.979-.24,0-.48.24-.72.24l-90.752-2.641L478.077,393C477.6,393.237,477.356,393.478,477.116,393.478Z" transform="translate(138.363 380.457)" fill="#ebebeb"/><path d="M1.144,368.741a1.247,1.247,0,0,1-.96-.48,1.266,1.266,0,0,1,.48-1.681L198.253,252.54a.838.838,0,0,0,.48-.24H361.991c.24,0,.48,0,.48.24l156.535,90.272H671.7a1.2,1.2,0,0,1,0,2.4H518.765c-.24,0-.48,0-.48-.24L361.75,254.7H199.214L1.864,368.5A.882.882,0,0,1,1.144,368.741Z" transform="translate(-0.04 353.336)" fill="#ebebeb"/><path d="M1.144,386.424a1.248,1.248,0,0,1-.96-.48,1.266,1.266,0,0,1,.48-1.681L213.619,261.34a.838.838,0,0,0,.48-.24H346.865c.24,0,.48,0,.48.24L503.88,351.612H634.966a1.2,1.2,0,0,1,0,2.4H503.64c-.24,0-.48,0-.48-.24L346.625,263.5H214.339L1.864,386.184A.882.882,0,0,1,1.144,386.424Z" transform="translate(-0.04 365.663)" fill="#ebebeb"/><path d="M1.144,377.7a1.248,1.248,0,0,1-.96-.48,1.266,1.266,0,0,1,.48-1.681l205.272-118.6a.838.838,0,0,0,.48-.24H354.548c.24,0,.48,0,.48.24l156.535,90.272,141.41.48a1.2,1.2,0,0,1,0,2.4h0l-141.65-.48c-.24,0-.48,0-.48-.24L354.308,259.1H206.656L1.864,377.462C1.624,377.462,1.384,377.7,1.144,377.7Z" transform="translate(-0.04 359.499)" fill="#ebebeb"/><path d="M460.616,441.945H353.778c-.24,0-.48,0-.48-.24l-114.04-65.783-66.263,38.414a1.09,1.09,0,0,1-1.2,0L74.08,357.916a.958.958,0,0,1-.48-.96,1.248,1.248,0,0,1,.48-.96l154.614-89.311a1.236,1.236,0,0,1,1.2,2.161L76.961,356.955l95.313,54.979,66.263-38.173a1.091,1.091,0,0,1,1.2,0l114.28,66.023h106.6a1.134,1.134,0,0,1,1.2,1.2A1.1,1.1,0,0,1,460.616,441.945Z" transform="translate(103.005 373.284)" fill="#ebebeb"/><path d="M368.911,463.353c-.24,0-.48,0-.48-.24l-98.675-56.9-66.5,38.414a1.09,1.09,0,0,1-1.2,0L52.48,358.2a.959.959,0,0,1-.48-.96,1.247,1.247,0,0,1,.48-.96l155.334-89.791a1.236,1.236,0,0,1,1.2,2.161L55.361,357.236l147.172,84.99L268.8,404.052a1.09,1.09,0,0,1,1.2,0l99.155,57.14H490.874a1.2,1.2,0,0,1,0,2.4Z" transform="translate(72.747 373.004)" fill="#ebebeb"/><path d="M475.745,452.649H361.225c-.24,0-.48,0-.48-.24L254.387,390.947l-66.263,38.414a1.091,1.091,0,0,1-1.2,0L63.28,358.056a.959.959,0,0,1-.48-.96,1.247,1.247,0,0,1,.48-.96l155.094-89.551a1.236,1.236,0,0,1,1.2,2.161L66.4,357.336l121.243,70.1,66.263-38.173a1.091,1.091,0,0,1,1.2,0l106.6,61.462h114.28a1.134,1.134,0,0,1,1.2,1.2C477.185,452.649,476.465,452.649,475.745,452.649Z" transform="translate(87.876 373.144)" fill="#ebebeb"/><path d="M757.12,468.586H541.764a.882.882,0,0,1-.72-.24L1.335,154.316a1.377,1.377,0,0,1-.48-1.681,1.378,1.378,0,0,1,1.681-.48l539.709,313.79H756.88l113.32-65.3-64.343-37.213H638.518c-.24,0-.48,0-.48-.24L515.835,292.6l-99.875,57.62a1.236,1.236,0,0,1-1.2-2.161l100.355-58.1a1.09,1.09,0,0,1,1.2,0l122.443,70.585H806.1c.24,0,.48,0,.48.24l66.5,38.413a.958.958,0,0,1,.48.96,1.247,1.247,0,0,1-.48.96l-115.24,66.5C757.6,468.586,757.36,468.586,757.12,468.586Z" transform="translate(0.969 212.917)" fill="#ebebeb"/><path d="M741.995,464.869H557.13a.882.882,0,0,1-.72-.24L1.335,141.716a1.377,1.377,0,0,1-.48-1.681,1.377,1.377,0,0,1,1.681-.48L557.37,462.468H741.514L818.1,418.293l-27.61-16.086H623.153c-.24,0-.48,0-.48-.24l-106.837-61.7L441.889,383.24a1.236,1.236,0,1,1-1.2-2.161L515.115,338.1a1.091,1.091,0,0,1,1.2,0l107.318,61.942H790.972c.24,0,.48,0,.48.24l29.77,17.286a.958.958,0,0,1,.48.96,1.247,1.247,0,0,1-.48.96l-78.508,45.376Z" transform="translate(0.969 195.266)" fill="#ebebeb"/><path d="M749.677,466.707H549.687a.882.882,0,0,1-.72-.24L1.335,148.116a1.377,1.377,0,0,1-.48-1.681,1.377,1.377,0,0,1,1.681-.48L549.927,464.066h199.51l94.833-54.739-46.1-26.649H630.836c-.24,0-.48,0-.48-.24l-114.52-65.783-86.91,50.178a1.266,1.266,0,0,1-1.681-.48c-.48-.72-.24-1.2.48-1.681l87.391-50.418a1.091,1.091,0,0,1,1.2,0l114.76,66.263H798.414c.24,0,.48,0,.48.24l48.257,27.85a.958.958,0,0,1,.48.96,1.248,1.248,0,0,1-.48.96l-96.994,55.94A.838.838,0,0,1,749.677,466.707Z" transform="translate(0.969 204.231)" fill="#ebebeb"/><path d="M301.847,288.514c-.24,0-.48,0-.48-.24l-90.032-51.858a1.236,1.236,0,0,1,1.2-2.161l89.791,51.858h90.512a1.2,1.2,0,1,1,0,2.4Z" transform="translate(295.146 327.926)" fill="#ebebeb"/><path d="M301.851,300.956c-.24,0-.48,0-.48-.24l-100.835-58.1a1.236,1.236,0,0,1,1.2-2.161l100.355,58.1H407.728a1.2,1.2,0,0,1,0,2.4Z" transform="translate(280.017 336.611)" fill="#ebebeb"/><path d="M400.163,294.735H301.729c-.24,0-.48,0-.48-.24l-95.313-54.979a1.236,1.236,0,0,1,1.2-2.161l95.073,54.979h97.954a1.2,1.2,0,1,1,0,2.4Z" transform="translate(287.581 332.268)" fill="#ebebeb"/><path d="M348.51,678.7a1.247,1.247,0,0,1-.96-.48,1.265,1.265,0,0,1,.48-1.68l113.8-65.783L320.18,528.889a.958.958,0,0,1-.48-.96V456.864a1.247,1.247,0,0,1,.48-.96l115.24-66.5-4.8-51.858a1.833,1.833,0,0,1,.48-1.2l89.551-51.858a1.236,1.236,0,1,1,1.2,2.161L432.78,338.023l4.8,51.858a1.834,1.834,0,0,1-.48,1.2l-115.24,66.5v69.865l142.85,82.589a.959.959,0,0,1,.48.96,1.247,1.247,0,0,1-.48.96l-115.48,66.5A.882.882,0,0,1,348.51,678.7Z" transform="translate(447.752 398.219)" fill="#ebebeb"/><path d="M344.174,672.742a1.247,1.247,0,0,1-.96-.48,1.266,1.266,0,0,1,.48-1.681l88.591-51.138-127-73.466a.959.959,0,0,1-.48-.96V456.666a1.247,1.247,0,0,1,.48-.96L419.8,389.683,415,337.825a1.833,1.833,0,0,1,.48-1.2l100.835-58.34a1.236,1.236,0,1,1,1.2,2.161L417.159,338.3l4.8,51.858a1.833,1.833,0,0,1-.48,1.2l-114.52,66.023V544.3l128.2,73.946a.958.958,0,0,1,.48.96,1.248,1.248,0,0,1-.48.96l-90.272,52.1C344.414,672.742,344.414,672.742,344.174,672.742Z" transform="translate(426.88 389.534)" fill="#ebebeb"/><path d="M346.292,675.433a1.247,1.247,0,0,1-.96-.48,1.265,1.265,0,0,1,.48-1.681l101.315-58.34L312.68,537.385a.958.958,0,0,1-.48-.96V456.716a1.247,1.247,0,0,1,.48-.96l115-66.263-4.8-51.858a1.833,1.833,0,0,1,.48-1.2l91.232-52.579c5.042-2.881,5.042-2.881,5.762-1.92a.73.73,0,0,1,0,.96c0,.24-.24.48-.48.72-.48.24-86.19,49.7-94.593,54.739l4.8,51.858a1.834,1.834,0,0,1-.48,1.2l-115,66.263v78.268l135.407,78.267a.959.959,0,0,1,.48.96,1.247,1.247,0,0,1-.48.96l-103,59.541A.882.882,0,0,0,346.292,675.433Z" transform="translate(437.246 394.045)" fill="#ebebeb"/><path d="M301.444,794.979a1.247,1.247,0,0,1-.96-.48,1.266,1.266,0,0,1,.48-1.681L610.192,614.2V521.283L453.9,431.011a.958.958,0,0,1-.48-.96V341.7a1.2,1.2,0,0,1,2.4,0v87.631L612.113,519.6a.958.958,0,0,1,.48.96v94.353a1.248,1.248,0,0,1-.48.96L302.164,794.739A.882.882,0,0,1,301.444,794.979ZM455.818,430.051Z" transform="translate(420.632 476.89)" fill="#ebebeb"/><path d="M290.244,768.107a1.247,1.247,0,0,1-.96-.48,1.265,1.265,0,0,1,.48-1.68L589.389,593.085V517.7L433.094,427.427a.959.959,0,0,1-.48-.96l-.24-75.867a1.134,1.134,0,0,1,1.2-1.2h0a1.134,1.134,0,0,1,1.2,1.2l.24,75.146L591.31,516.018a.959.959,0,0,1,.48.96v76.587a1.247,1.247,0,0,1-.48.96L291.2,767.867A1.815,1.815,0,0,1,290.244,768.107Z" transform="translate(404.943 489.357)" fill="#ebebeb"/><path d="M295.844,781.473a1.247,1.247,0,0,1-.96-.48,1.266,1.266,0,0,1,.48-1.681L599.791,603.57V519.541L443.5,429.029a.959.959,0,0,1-.48-.96L442.3,346.2a1.134,1.134,0,0,1,1.2-1.2h0a1.134,1.134,0,0,1,1.2,1.2l.72,81.149L601.711,517.62a.959.959,0,0,1,.48.96v85.47a1.247,1.247,0,0,1-.48.96L296.564,781.233A.882.882,0,0,1,295.844,781.473Z" transform="translate(412.788 483.194)" fill="#ebebeb"/><path d="M428.751,591.5c-.24,0-.48,0-.48-.24l-97.714-56.42a.959.959,0,0,1-.48-.961,1.247,1.247,0,0,1,.48-.96l65.063-37.693L282.78,430.162a.959.959,0,0,1-.48-.96V367.5a1.2,1.2,0,1,1,2.4,0v60.981l114.04,65.783a.958.958,0,0,1,.48.96,1.82,1.82,0,0,1-.48.96l-65.063,37.693,95.314,54.979,154.134-89.071a1.236,1.236,0,0,1,1.2,2.161L429.712,591.259A1.815,1.815,0,0,1,428.751,591.5Z" transform="translate(395.361 513.032)" fill="#ebebeb"/><path d="M450.044,621.65c-.24,0-.48,0-.48-.24l-149.572-86.43a.958.958,0,0,1-.48-.96,1.248,1.248,0,0,1,.48-.96l65.063-37.693-97.474-56.42a.958.958,0,0,1-.48-.96V367.4a1.134,1.134,0,0,1,1.2-1.2h0a1.134,1.134,0,0,1,1.2,1.2v69.864l98.675,56.9a.958.958,0,0,1,.48.96,1.82,1.82,0,0,1-.48.96l-65.3,37.933,147.171,84.99L604.9,529.7a1.236,1.236,0,1,1,1.2,2.161L450.764,621.65Z" transform="translate(374.068 512.892)" fill="#ebebeb"/><path d="M439.4,606.484c-.24,0-.48,0-.48-.24L315.274,534.939a.958.958,0,0,1-.48-.96,1.247,1.247,0,0,1,.48-.96l65.063-37.693L275.18,434.584a.959.959,0,0,1-.48-.96V367.6a1.2,1.2,0,1,1,2.4,0v65.063l106.357,61.461a.958.958,0,0,1,.48.96,1.819,1.819,0,0,1-.48.96L318.4,533.739l121.242,70.1,154.374-89.071a1.236,1.236,0,1,1,1.2,2.161L440.118,606.484C439.878,606.244,439.638,606.484,439.4,606.484Z" transform="translate(384.715 513.172)" fill="#ebebeb"/><path d="M594.5,916.944a1.134,1.134,0,0,1-1.2-1.2V608.2L379.38,484.793a.959.959,0,0,1-.48-.96V359.469a1.247,1.247,0,0,1,.48-.96L494.621,292a1.091,1.091,0,0,1,1.2,0l66.5,38.414a.959.959,0,0,1,.48.96v96.034L685.007,498a.958.958,0,0,1,.48.96,1.821,1.821,0,0,1-.48.96l-100.355,58.1a1.236,1.236,0,0,1-1.2-2.161l98.675-56.9-121-69.864a.958.958,0,0,1-.48-.96V332.1l-65.3-37.693L381.3,360.429V483.352l213.915,123.4a.959.959,0,0,1,.48.961V915.984C595.7,916.464,594.976,916.944,594.5,916.944Z" transform="translate(530.682 408.704)" fill="#ebebeb"/><path d="M609.7,880.227a1.134,1.134,0,0,1-1.2-1.2V582.042L394.58,458.639a.958.958,0,0,1-.48-.96V350.841a1.247,1.247,0,0,1,.48-.96l78.748-45.376a1.091,1.091,0,0,1,1.2,0l29.77,17.286a.958.958,0,0,1,.48.96v96.034l106.837,61.7a.958.958,0,0,1,.48.96,1.82,1.82,0,0,1-.48.96L537.19,525.382a1.236,1.236,0,1,1-1.2-2.161l72.745-42.015L503.1,420.226a.959.959,0,0,1-.48-.96V323.232l-28.57-16.566-77.547,44.9v105.4l213.915,123.4a.959.959,0,0,1,.48.96v297.7A1.134,1.134,0,0,1,609.7,880.227Z" transform="translate(551.975 426.215)" fill="#ebebeb"/><path d="M602.1,898.515a1.134,1.134,0,0,1-1.2-1.2V595.049L386.98,471.646a.958.958,0,0,1-.48-.96V355.205a1.248,1.248,0,0,1,.48-.96l96.994-55.94a1.091,1.091,0,0,1,1.2,0l48.257,27.85a.958.958,0,0,1,.48.96v96.034l114.52,66.023a.959.959,0,0,1,.48.96,1.82,1.82,0,0,1-.48.96L561.041,541.51a1.236,1.236,0,1,1-1.2-2.161l85.71-49.458-113.32-65.3a.958.958,0,0,1-.48-.96V327.6l-47.056-27.129L388.9,355.685v114.04l213.915,123.4a.959.959,0,0,1,.48.96V897.075C603.3,898.035,602.816,898.515,602.1,898.515Z" transform="translate(541.329 417.529)" fill="#ebebeb"/><path d="M516.792,443.1c-.24,0-.48,0-.48-.24L426.28,391a.958.958,0,0,1-.48-.96V337.7a1.134,1.134,0,0,1,1.2-1.2h0a1.134,1.134,0,0,1,1.2,1.2v51.618l89.311,51.618a1.378,1.378,0,0,1,.48,1.681A1.835,1.835,0,0,1,516.792,443.1Z" transform="translate(596.382 471.287)" fill="#ebebeb"/><path d="M512.3,458.223c-.24,0-.48,0-.48-.24l-100.835-58.1a.958.958,0,0,1-.48-.96V337.7a1.134,1.134,0,0,1,1.2-1.2h0a1.134,1.134,0,0,1,1.2,1.2v60.5l100.115,57.86a1.378,1.378,0,0,1,.48,1.681A1.835,1.835,0,0,1,512.3,458.223Z" transform="translate(574.949 471.287)" fill="#ebebeb"/><path d="M514.614,450.78c-.24,0-.48,0-.48-.24L418.58,395.321a.958.958,0,0,1-.48-.96V337.7a1.2,1.2,0,0,1,2.4,0v56.18l94.833,54.739a1.378,1.378,0,0,1,.48,1.681A1.834,1.834,0,0,1,514.614,450.78Z" transform="translate(585.595 471.287)" fill="#ebebeb"/><path d="M416.944,477.2a1.247,1.247,0,0,1-.96-.48,1.266,1.266,0,0,1,.48-1.681l89.071-51.378-4.8-51.858a1.833,1.833,0,0,1,.48-1.2l115.241-66.5V234.237L473.6,151.648a.959.959,0,0,1-.48-.96,1.247,1.247,0,0,1,.48-.96l115.72-66.743a1.236,1.236,0,0,1,1.2,2.161l-114.04,65.3,141.65,81.869a.958.958,0,0,1,.48.96v71.065a1.247,1.247,0,0,1-.48.96l-115.24,66.5,4.8,51.858a1.835,1.835,0,0,1-.48,1.2l-89.792,52.1A.838.838,0,0,0,416.944,477.2Z" transform="translate(582.43 115.949)" fill="#ebebeb"/><path d="M427.444,483.062a1.248,1.248,0,0,1-.96-.48,1.266,1.266,0,0,1,.48-1.681l100.355-57.86-4.8-51.858a1.834,1.834,0,0,1,.48-1.2l114.52-66.023v-86.91L509.553,143.1a.958.958,0,0,1-.48-.96,1.248,1.248,0,0,1,.48-.96l90.272-52.1a1.236,1.236,0,1,1,1.2,2.161L512.434,141.9l127,73.226a.959.959,0,0,1,.48.96v88.351a1.246,1.246,0,0,1-.48.96l-114.52,66.023,4.8,51.858a1.833,1.833,0,0,1-.48,1.2L428.4,482.822A1.815,1.815,0,0,1,427.444,483.062Z" transform="translate(597.138 124.495)" fill="#ebebeb"/><path d="M421.925,480.342q-.36,0-.72-.72a.73.73,0,0,1,0-.96c.24-.24.24-.48.48-.72s86.19-49.7,94.593-54.739l-4.8-51.858a1.834,1.834,0,0,1,.48-1.2l115-66.263V225.613L491.55,147.345a.959.959,0,0,1-.48-.96,1.248,1.248,0,0,1,.48-.96l103-59.541a1.236,1.236,0,1,1,1.2,2.161l-101.075,58.34,134.207,77.547a.959.959,0,0,1,.48.96v79.948a1.247,1.247,0,0,1-.48.96l-114.76,66.263,4.8,51.858a1.834,1.834,0,0,1-.48,1.2L427.207,477.7C423.606,479.622,422.405,480.342,421.925,480.342Z" transform="translate(589.693 120.012)" fill="#ebebeb"/><path d="M547.575,458.024a1.134,1.134,0,0,1-1.2-1.2V369.193L390.08,278.921a.958.958,0,0,1-.48-.96V183.608a1.247,1.247,0,0,1,.48-.96L706.271.184a1.265,1.265,0,0,1,1.68.48,1.266,1.266,0,0,1-.48,1.681L392,184.328v92.913L548.3,367.513a.958.958,0,0,1,.48.96v88.351A1.134,1.134,0,0,1,547.575,458.024Z" transform="translate(545.671 -0.04)" fill="#ebebeb"/><path d="M563.116,436.657a1.134,1.134,0,0,1-1.2-1.2l-.24-75.146L405.38,270.038a.959.959,0,0,1-.48-.96V192.491a1.247,1.247,0,0,1,.48-.96L736.7.184a1.266,1.266,0,0,1,1.68.48,1.265,1.265,0,0,1-.48,1.681L407.3,193.211V268.6L563.6,358.869a.958.958,0,0,1,.48.96l.24,75.867a1.1,1.1,0,0,1-1.2.96Z" transform="translate(567.104 -0.04)" fill="#ebebeb"/><path d="M555.9,446.98a1.134,1.134,0,0,1-1.2-1.2l-.72-81.148L397.68,274.36a.959.959,0,0,1-.48-.96V188.17a1.247,1.247,0,0,1,.48-.96L721.553.184a1.266,1.266,0,0,1,1.681.48,1.266,1.266,0,0,1-.48,1.681L399.6,188.65v84.029L555.9,362.951a.958.958,0,0,1,.48.96l.72,81.869a1.134,1.134,0,0,1-1.2,1.2Z" transform="translate(556.318 -0.04)" fill="#ebebeb"/><path d="M713.089,296.364a1.134,1.134,0,0,1-1.2-1.2V234.182L597.849,168.4a.959.959,0,0,1-.48-.96,1.248,1.248,0,0,1,.48-.96l65.063-37.693L567.6,73.806,413.464,162.877a1.236,1.236,0,1,1-1.2-2.161L566.878,71.405a1.091,1.091,0,0,1,1.2,0l97.714,56.42a.959.959,0,0,1,.48.96,1.247,1.247,0,0,1-.48.96L600.73,167.439,713.569,232.5a.959.959,0,0,1,.48.96v61.7C714.29,295.884,713.81,296.364,713.089,296.364Z" transform="translate(576.546 99.678)" fill="#ebebeb"/><path d="M750.1,314.014h0a1.134,1.134,0,0,1-1.2-1.2V242.95l-98.674-56.9a.959.959,0,0,1-.48-.96,1.247,1.247,0,0,1,.48-.96l65.063-37.693L568.119,61.446,413.264,150.757a1.236,1.236,0,1,1-1.2-2.161L567.4,58.805a1.09,1.09,0,0,1,1.2,0l149.572,86.43a.959.959,0,0,1,.48.96,1.247,1.247,0,0,1-.48.96l-65.063,37.693,97.474,56.42a.958.958,0,0,1,.48.96v70.585C751.3,313.534,750.823,314.014,750.1,314.014Z" transform="translate(576.266 82.028)" fill="#ebebeb"/><path d="M731.576,305.189a1.134,1.134,0,0,1-1.2-1.2v-65.3L624.018,177.224a.959.959,0,0,1-.48-.96,1.248,1.248,0,0,1,.48-.96l65.063-37.693-121.243-70.1L413.464,156.577a1.236,1.236,0,1,1-1.2-2.161L567.358,65.105a1.09,1.09,0,0,1,1.2,0L692.2,136.41a.959.959,0,0,1,.48.96,1.247,1.247,0,0,1-.48.96l-65.063,37.693L732.3,236.765a.959.959,0,0,1,.48.96v66.023C732.776,304.709,732.3,305.189,731.576,305.189Z" transform="translate(576.546 90.853)" fill="#ebebeb"/><path d="M503.647,424.606c-.24,0-.48,0-.48-.24l-66.5-38.414a.958.958,0,0,1-.48-.96V288.958l-122.2-70.585a.958.958,0,0,1-.48-.96,1.247,1.247,0,0,1,.48-.96l100.355-58.1a1.236,1.236,0,1,1,1.2,2.161l-98.675,56.9,121,69.864a.959.959,0,0,1,.48.96v96.034l65.3,37.693,114.04-66.023V233.019l-213.915-123.4a1.236,1.236,0,1,1,1.2-2.161l214.4,123.883a.958.958,0,0,1,.48.96V356.662a1.247,1.247,0,0,1-.48.96l-115.24,66.5C503.887,424.606,503.887,424.606,503.647,424.606Z" transform="translate(439.067 150.299)" fill="#ebebeb"/><path d="M473.248,389.412c-.24,0-.48,0-.48-.24L443,371.886a.959.959,0,0,1-.48-.96V274.892l-106.838-61.7a.958.958,0,0,1-.48-.96,1.248,1.248,0,0,1,.48-.96L410.106,168.3a1.236,1.236,0,1,1,1.2,2.161L338.561,212.47,444.2,273.452a.958.958,0,0,1,.48.96v96.034l28.57,16.566L550.8,342.356v-105.4L336.641,113.316a1.236,1.236,0,1,1,1.2-2.161l214.4,123.883a.959.959,0,0,1,.48.96V342.836a1.247,1.247,0,0,1-.48.96l-78.507,45.616Z" transform="translate(469.465 155.482)" fill="#ebebeb"/><path d="M488.518,406.779c-.24,0-.48,0-.48-.24l-48.257-27.85a.958.958,0,0,1-.48-.96V281.7L324.78,215.672a.958.958,0,0,1-.48-.96,1.821,1.821,0,0,1,.48-.96l87.391-50.418a1.236,1.236,0,1,1,1.2,2.161l-85.71,49.457,113.32,65.3a.959.959,0,0,1,.48.96v96.034l47.057,27.13,95.793-55.219V235.119L370.4,111.716a1.236,1.236,0,1,1,1.2-2.161l214.4,123.883a.959.959,0,0,1,.48.96v115.48a1.247,1.247,0,0,1-.48.96L489,406.779Z" transform="translate(454.196 153.241)" fill="#ebebeb"/><path d="M447.087,257.052h0a1.134,1.134,0,0,1-1.2-1.2V204.234l-89.551-51.618a1.236,1.236,0,1,1,1.2-2.161l90.032,51.858a.959.959,0,0,1,.48.96v52.338C448.287,256.572,447.807,257.052,447.087,257.052Z" transform="translate(498.268 210.535)" fill="#ebebeb"/><path d="M468.551,265.878h0a1.134,1.134,0,0,1-1.2-1.2v-60.5l-100.115-57.86a1.236,1.236,0,1,1,1.2-2.161l100.835,58.1a.959.959,0,0,1,.48.96v61.221A1.35,1.35,0,0,1,468.551,265.878Z" transform="translate(513.537 201.71)" fill="#ebebeb"/><path d="M457.769,261.395a1.134,1.134,0,0,1-1.2-1.2v-55.94l-94.833-54.739a1.236,1.236,0,1,1,1.2-2.161l95.313,54.979a.959.959,0,0,1,.48.96v56.9C458.969,260.915,458.489,261.395,457.769,261.395Z" transform="translate(505.832 206.192)" fill="#ebebeb"/><path d="M443.744,331.7a1.247,1.247,0,0,1-.96-.48,1.266,1.266,0,0,1,.48-1.681l89.551-51.858c.24,0,.48-.24.72-.24l90.752,2.641L740.008,213.34a.838.838,0,0,0,.48-.24H863.651c.24,0,.48,0,.48.24l142.85,82.589,115-66.5a1.236,1.236,0,0,1,1.2,2.161L1007.462,298.33a1.091,1.091,0,0,1-1.2,0l-143.33-82.589H740.248L624.527,282.484c-.24,0-.48.24-.72.24l-90.752-2.641L443.744,331.7Z" transform="translate(619.972 298.423)" fill="#ebebeb"/><path d="M433.144,329.2a1.247,1.247,0,0,1-.96-.48,1.266,1.266,0,0,1,.48-1.681L533.5,268.7c.24,0,.48-.24.72-.24l90.752,2.641,114.76-66.263a.839.839,0,0,0,.48-.24H893.145c.24,0,.48,0,.48.24l128.2,73.946,89.791-51.858a1.236,1.236,0,0,1,1.2,2.161l-90.272,52.1a1.09,1.09,0,0,1-1.2,0L892.905,207H740.692l-114.76,66.263c-.24,0-.48.24-.72.24l-90.752-2.641-100.6,58.1C433.624,328.964,433.384,329.2,433.144,329.2Z" transform="translate(605.123 286.516)" fill="#ebebeb"/><path d="M438.225,330.523q-.36,0-.72-.72a.73.73,0,0,1,0-.96c0-.24.24-.48.48-.72S533.3,273.143,533.3,273.143c.24,0,.48-.24.72-.24l90.752,2.641,115.24-66.5a.838.838,0,0,0,.48-.24H878.539c.24,0,.48,0,.48.24l135.408,78.267,102.516-59.061a1.236,1.236,0,1,1,1.2,2.161l-103,59.541a1.09,1.09,0,0,1-1.2,0L878.3,211.441H740.971l-115.24,66.5c-.24,0-.48.24-.72.24l-90.752-2.641-90.992,52.578C439.906,329.8,438.705,330.523,438.225,330.523Z" transform="translate(612.526 292.399)" fill="#ebebeb"/><path d="M1014.266,331.913H851.009c-.24,0-.48,0-.48-.24L693.994,241.4H541.3a1.2,1.2,0,1,1,0-2.4H694.234c.24,0,.48,0,.48.24l156.535,90.272h162.537l147.412-85.23a1.236,1.236,0,1,1,1.2,2.161l-147.652,85.23A.838.838,0,0,0,1014.266,331.913Z" transform="translate(756.498 334.705)" fill="#ebebeb"/><path d="M977.468,325.057H844.7c-.24,0-.48,0-.48-.24L687.686,234.546H556.6a1.2,1.2,0,0,1,0-2.4H687.926c.24,0,.48,0,.48.24l156.535,90.272H977.228L1140,228.784a1.236,1.236,0,0,1,1.2,2.161L978.188,325.057Z" transform="translate(777.931 320.192)" fill="#ebebeb"/><path d="M995.657,327.693H847.525c-.24,0-.48,0-.48-.24L690.51,237.181,549.1,236.7a1.2,1.2,0,0,1,0-2.4h0l141.65.48c.24,0,.48,0,.48.24l156.535,90.272H995.177l155.094-89.551a1.236,1.236,0,1,1,1.2,2.161L996.137,327.693Z" transform="translate(767.424 328.121)" fill="#ebebeb"/><path d="M817.1,367.342a1.247,1.247,0,0,1-.96-.48,1.266,1.266,0,0,1,.48-1.68L969.555,276.83l-95.313-54.979-66.263,38.173a1.09,1.09,0,0,1-1.2,0L692.5,194H585.9a1.2,1.2,0,0,1,0-2.4H692.738c.24,0,.48,0,.48.24l114.04,65.783,66.263-38.173a1.091,1.091,0,0,1,1.2,0l97.714,56.42a.959.959,0,0,1,.48.96,1.247,1.247,0,0,1-.48.96L817.821,367.1A.881.881,0,0,1,817.1,367.342Z" transform="translate(818.975 268.305)" fill="#ebebeb"/><path d="M868.339,380.009a1.248,1.248,0,0,1-.96-.48,1.266,1.266,0,0,1,.48-1.681l153.654-88.591-147.172-84.99-66.263,38.173a1.09,1.09,0,0,1-1.2,0L707.723,185.3H586a1.2,1.2,0,0,1,0-2.4H708.2c.24,0,.48,0,.48.24l98.675,56.9,66.263-38.173a1.09,1.09,0,0,1,1.2,0l149.573,86.43a.959.959,0,0,1,.48.96,1.246,1.246,0,0,1-.48.96L869.059,380.009Z" transform="translate(819.116 256.117)" fill="#ebebeb"/><path d="M842.79,373.605a1.248,1.248,0,0,1-.961-.48,1.266,1.266,0,0,1,.48-1.681l153.174-88.591L874.242,212.989l-66.263,38.173a1.09,1.09,0,0,1-1.2,0L700.18,189.7H585.9a1.2,1.2,0,0,1,0-2.4h114.52c.24,0,.48,0,.48.24L807.258,249l66.263-38.413a1.091,1.091,0,0,1,1.2,0l123.643,71.3a.959.959,0,0,1,.48.96,1.247,1.247,0,0,1-.48.96L843.271,373.365C843.271,373.605,843.03,373.605,842.79,373.605Z" transform="translate(818.975 262.281)" fill="#ebebeb"/><path d="M813.525,425.642c-.24,0-.48,0-.48-.24L690.6,354.818H523.264c-.24,0-.48,0-.48-.24l-66.5-38.414a.959.959,0,0,1-.48-.96,1.819,1.819,0,0,1,.48-.96l115.24-66.5a.839.839,0,0,0,.48-.24H787.356c.24,0,.48,0,.48.24l214.155,123.643h277.537a1.2,1.2,0,0,1,0,2.4H1001.511c-.24,0-.48,0-.48-.24L786.876,249.9H572.241l-113.32,65.3,64.342,37.213H690.6c.24,0,.48,0,.48.24l122.2,70.585,99.875-57.62a1.236,1.236,0,1,1,1.2,2.161L814.005,425.4A.839.839,0,0,0,813.525,425.642Z" transform="translate(638.407 346.612)" fill="#ebebeb"/><path d="M783.267,383.445c-.24,0-.48,0-.48-.24L675.469,321.263H508.131c-.24,0-.48,0-.48-.24l-29.77-17.286a.959.959,0,0,1-.48-.96,1.247,1.247,0,0,1,.48-.96l78.747-45.376a.839.839,0,0,0,.48-.24H741.973c.24,0,.48,0,.48.24L956.608,380.083h292.9a1.2,1.2,0,1,1,0,2.4H956.368c-.24,0-.48,0-.48-.24L741.733,258.6H557.588L481,302.776l27.61,16.086H675.949c.24,0,.48,0,.48.24l106.837,61.7,73.946-42.735a1.236,1.236,0,1,1,1.2,2.161L783.987,383.2A1.857,1.857,0,0,1,783.267,383.445Z" transform="translate(668.665 358.799)" fill="#ebebeb"/><path d="M798.536,404.493c-.24,0-.48,0-.48-.24L683.3,337.99H515.717c-.24,0-.48,0-.48-.24L466.98,309.9a.958.958,0,0,1-.48-.96,1.248,1.248,0,0,1,.48-.96l96.994-55.94a.838.838,0,0,0,.48-.24h199.99c.24,0,.48,0,.48.24L979.08,375.683H1264.3a1.2,1.2,0,0,1,0,2.4H979.08c-.24,0-.48,0-.48-.24L764.444,254.2H564.935L470.1,308.94l46.1,26.649H683.536c.24,0,.48,0,.48.24l114.52,66.023,86.91-50.178a1.236,1.236,0,1,1,1.2,2.161l-87.391,50.418A1.858,1.858,0,0,1,798.536,404.493Z" transform="translate(653.396 352.635)" fill="#ebebeb"/><path d="M714.984,329c-.24,0-.48,0-.48-.24L624.712,276.9H534.2a1.2,1.2,0,0,1,0-2.4h90.752c.24,0,.48,0,.48.24L715.464,326.6a1.378,1.378,0,0,1,.48,1.681C715.944,328.759,715.464,329,714.984,329Z" transform="translate(746.552 384.434)" fill="#ebebeb"/><path d="M740.773,326.341c-.24,0-.48,0-.48-.24L639.937,268H534.3a1.2,1.2,0,0,1,0-2.4H640.177c.24,0,.48,0,.48.24l100.835,58.1a1.378,1.378,0,0,1,.48,1.681A1.321,1.321,0,0,1,740.773,326.341Z" transform="translate(746.692 371.967)" fill="#ebebeb"/><path d="M727.808,327.62c-.24,0-.48,0-.48-.24L632.255,272.4H534.3a1.2,1.2,0,0,1,0-2.4h98.435c.24,0,.48,0,.48.24l95.313,54.979a1.377,1.377,0,0,1,.48,1.681A1.321,1.321,0,0,1,727.808,327.62Z" transform="translate(746.692 378.131)" fill="#ebebeb"/><path d="M162.044,557.825a1.248,1.248,0,0,1-.96-.48,1.266,1.266,0,0,1,.48-1.681L377.4,431.061V373.2a1.2,1.2,0,0,1,2.4,0v58.581a1.247,1.247,0,0,1-.48.96L163,557.585C162.524,557.585,162.284,557.825,162.044,557.825Z" transform="translate(225.355 521.016)" fill="#ebebeb"/><path d="M156.644,618.647a1.247,1.247,0,0,1-.96-.48,1.266,1.266,0,0,1,.48-1.681L366.958,494.764V436.9a1.247,1.247,0,0,1,.48-.96L562.146,323.584a1.236,1.236,0,1,1,1.2,2.161L369.119,437.864v57.38a1.247,1.247,0,0,1-.48.96L157.364,618.167C157.124,618.407,156.884,618.647,156.644,618.647Z" transform="translate(217.791 452.992)" fill="#ebebeb"/><path d="M151.344,628.535a1.247,1.247,0,0,1-.96-.48,1.266,1.266,0,0,1,.48-1.681L356.616,507.533v-57.86a1.247,1.247,0,0,1,.48-.96L595.02,311.384a1.236,1.236,0,0,1,1.2,2.161l-237.2,137.088v57.86a1.248,1.248,0,0,1-.48.96L152.064,628.295C151.824,628.295,151.584,628.535,151.344,628.535Z" transform="translate(210.366 435.902)" fill="#ebebeb"/><path d="M93.344,483.945a1.248,1.248,0,0,1-.96-.48,1.266,1.266,0,0,1,.48-1.681L309.18,356.94a.838.838,0,0,0,.48-.24H410.975a1.2,1.2,0,1,1,0,2.4H310.14L94.064,483.945Z" transform="translate(129.117 499.584)" fill="#ebebeb"/><path d="M98.544,551.007a1.247,1.247,0,0,1-.96-.48,1.266,1.266,0,0,1,.48-1.681L309.338,426.883a.838.838,0,0,0,.48-.24H410.894L605.362,314.284a1.236,1.236,0,0,1,1.2,2.161L411.854,428.8a.838.838,0,0,0-.48.24H310.058L99.024,551.007Z" transform="translate(136.402 439.964)" fill="#ebebeb"/><path d="M198.015,539.58a1.247,1.247,0,0,1-.96-.48,1.266,1.266,0,0,1,.48-1.681L398.245,421.7V372.241H310.615L109.664,488.2a1.236,1.236,0,0,1-1.2-2.161l201.191-116.2a.838.838,0,0,0,.48-.24h89.071a1.134,1.134,0,0,1,1.2,1.2v51.378a1.247,1.247,0,0,1-.48.96l-201.19,116.2A1.053,1.053,0,0,0,198.015,539.58Z" transform="translate(150.97 517.654)" fill="#ebebeb"/><path d="M103.744,566.854a1.247,1.247,0,0,1-.96-.48,1.266,1.266,0,0,1,.48-1.68L309.5,445.612a.838.838,0,0,0,.48-.24H411.052L648.735,308.284a1.236,1.236,0,0,1,1.2,2.161L412.012,447.773a.838.838,0,0,0-.48.24H310.456L104.464,566.854C103.984,566.614,103.984,566.854,103.744,566.854Z" transform="translate(143.686 431.559)" fill="#ebebeb"/><path d="M697.016,306.923H595.7a1.2,1.2,0,1,1,0-2.4H696.776l388.7-224.239a1.236,1.236,0,0,1,1.2,2.161L697.736,306.923Z" transform="translate(832.704 112.167)" fill="#ebebeb"/><path d="M511.444,417.744a1.248,1.248,0,0,1-.96-.48,1.265,1.265,0,0,1,.48-1.681L705.672,303.224a.839.839,0,0,0,.48-.24H807.228l396.139-228.8a1.236,1.236,0,1,1,1.2,2.161l-396.379,228.8a.839.839,0,0,0-.48.24H706.393L511.924,417.744C511.924,417.5,511.684,417.744,511.444,417.744Z" transform="translate(714.809 103.622)" fill="#ebebeb"/><path d="M490.344,440.694a1.247,1.247,0,0,1-.96-.48,1.266,1.266,0,0,1,.48-1.681L727.787,301.205a.839.839,0,0,0,.48-.24H829.343L1232.924,68.084a1.236,1.236,0,1,1,1.2,2.161L830.3,303.366a.838.838,0,0,0-.48.24H728.748L491.064,440.694Z" transform="translate(685.251 95.077)" fill="#ebebeb"/><path d="M569.2,381.377a1.134,1.134,0,0,1-1.2-1.2V321.6a1.248,1.248,0,0,1,.48-.96L1121.874,1.084a1.266,1.266,0,0,1,1.681.48,1.266,1.266,0,0,1-.48,1.681L570.4,322.316v57.86A1.286,1.286,0,0,1,569.2,381.377Z" transform="translate(795.581 1.221)" fill="#ebebeb"/><path d="M495.444,488.952a1.247,1.247,0,0,1-.96-.48,1.266,1.266,0,0,1,.48-1.681L689.192,374.672v-57.86a1.246,1.246,0,0,1,.48-.96L1223.379,7.584a1.236,1.236,0,0,1,1.2,2.161L691.593,317.532v57.86a1.247,1.247,0,0,1-.48.96L496.4,488.712C495.924,488.712,495.684,488.952,495.444,488.952Z" transform="translate(692.396 10.326)" fill="#ebebeb"/><path d="M680.572,360.983H591.5a1.134,1.134,0,0,1-1.2-1.2V308.4a1.247,1.247,0,0,1,.48-.96L1089.435,19.584a1.236,1.236,0,0,1,1.2,2.161L592.7,309.125v49.457h87.631l411.024-237.2a1.236,1.236,0,1,1,1.2,2.161L681.292,360.983Z" transform="translate(826.82 27.136)" fill="#ebebeb"/><path d="M484.944,509.6a1.248,1.248,0,0,1-.96-.48,1.266,1.266,0,0,1,.48-1.681l237.2-137.088v-57.86a1.247,1.247,0,0,1,.48-.96L1238.328,13.584a1.236,1.236,0,0,1,1.2,2.161l-515.461,297.7v57.86a1.247,1.247,0,0,1-.48.96L485.664,509.6Z" transform="translate(677.687 18.731)" fill="#ebebeb"/><path d="M1.744,628.049a1.247,1.247,0,0,1-.96-.48,1.266,1.266,0,0,1,.48-1.681l219.917-127a1.236,1.236,0,1,1,1.2,2.161L2.224,627.809C2.224,628.049,1.984,628.049,1.744,628.049Z" transform="translate(0.8 698.559)" fill="#ebebeb"/><path d="M1.744,638.352a1.247,1.247,0,0,1-.96-.48,1.266,1.266,0,0,1,.48-1.681l232.4-134.207a1.236,1.236,0,0,1,1.2,2.161L2.224,638.111A.838.838,0,0,1,1.744,638.352Z" transform="translate(0.8 702.902)" fill="#ebebeb"/><path d="M1.744,658.857a1.247,1.247,0,0,1-.96-.48,1.266,1.266,0,0,1,.48-1.681l257.13-148.612a1.236,1.236,0,1,1,1.2,2.161L2.224,658.857Z" transform="translate(0.8 711.447)" fill="#ebebeb"/><path d="M1.744,648.554a1.247,1.247,0,0,1-.96-.481,1.265,1.265,0,0,1,.48-1.68L246.15,504.984a1.236,1.236,0,1,1,1.2,2.161L2.464,648.554Z" transform="translate(0.8 707.104)" fill="#ebebeb"/><path d="M93.4,627.177a1.134,1.134,0,0,1-1.2-1.2V409.9a1.2,1.2,0,0,1,2.4,0V625.976A1.134,1.134,0,0,1,93.4,627.177Z" transform="translate(129.061 572.427)" fill="#ebebeb"/><path d="M98.6,630.277a1.134,1.134,0,0,1-1.2-1.2V413a1.2,1.2,0,0,1,2.4,0V629.076A1.134,1.134,0,0,1,98.6,630.277Z" transform="translate(136.345 576.77)" fill="#ebebeb"/><path d="M109,636.377a1.134,1.134,0,0,1-1.2-1.2V419.1a1.2,1.2,0,0,1,2.4,0V635.176A1.286,1.286,0,0,1,109,636.377Z" transform="translate(150.914 585.315)" fill="#ebebeb"/><path d="M103.8,633.377a1.134,1.134,0,0,1-1.2-1.2V416.1a1.2,1.2,0,1,1,2.4,0V632.176A1.286,1.286,0,0,1,103.8,633.377Z" transform="translate(143.63 581.113)" fill="#ebebeb"/><g transform="translate(62.422 1054.113)"><path d="M27.144,696.863a1.247,1.247,0,0,1-.96-.48,1.266,1.266,0,0,1,.48-1.681l286.42-165.418a1.236,1.236,0,0,1,1.2,2.161L27.624,696.622C27.624,696.863,27.384,696.863,27.144,696.863Z" transform="translate(-26.04 -312.968)" fill="#ebebeb"/><path d="M37.544,692.76a1.247,1.247,0,0,1-.96-.48,1.266,1.266,0,0,1,.48-1.681L311,532.384a1.236,1.236,0,0,1,1.2,2.161L38.024,692.52C37.784,692.76,37.784,692.76,37.544,692.76Z" transform="translate(-11.471 -308.626)" fill="#ebebeb"/><path d="M58.344,684.455a1.247,1.247,0,0,1-.96-.48,1.266,1.266,0,0,1,.48-1.68l248.967-143.81a1.236,1.236,0,1,1,1.2,2.161L58.824,684.455Z" transform="translate(17.666 -300.08)" fill="#ebebeb"/><path d="M47.944,688.657a1.248,1.248,0,0,1-.96-.48,1.266,1.266,0,0,1,.48-1.681L308.916,535.484a1.236,1.236,0,0,1,1.2,2.161L48.424,688.417A.838.838,0,0,0,47.944,688.657Z" transform="translate(3.097 -304.283)" fill="#ebebeb"/><path d="M146.5,657.576a1.134,1.134,0,0,1-1.2-1.2V440.3a1.2,1.2,0,1,1,2.4,0V656.376A1.134,1.134,0,0,1,146.5,657.576Z" transform="translate(141.024 -439.1)" fill="#ebebeb"/><path d="M151.7,660.676a1.134,1.134,0,0,1-1.2-1.2V443.4a1.2,1.2,0,1,1,2.4,0V659.476A1.134,1.134,0,0,1,151.7,660.676Z" transform="translate(148.308 -434.757)" fill="#ebebeb"/><path d="M162.1,666.877a1.134,1.134,0,0,1-1.2-1.2V449.6a1.2,1.2,0,0,1,2.4,0V665.676A1.286,1.286,0,0,1,162.1,666.877Z" transform="translate(162.877 -426.072)" fill="#ebebeb"/><path d="M156.9,663.776a1.134,1.134,0,0,1-1.2-1.2V446.5a1.2,1.2,0,0,1,2.4,0V662.576A1.286,1.286,0,0,1,156.9,663.776Z" transform="translate(155.593 -430.415)" fill="#ebebeb"/></g><g transform="translate(695.427 1251.462)"><path d="M290.9,706.885a1.134,1.134,0,0,1-1.2-1.2V522.5a1.2,1.2,0,0,1,2.4,0V705.685A1.286,1.286,0,0,1,290.9,706.885Z" transform="translate(-289.7 -521.3)" fill="#ebebeb"/><path d="M296.3,702.683a1.134,1.134,0,0,1-1.2-1.2V525.5a1.2,1.2,0,1,1,2.4,0V701.482A1.134,1.134,0,0,1,296.3,702.683Z" transform="translate(-282.136 -517.097)" fill="#ebebeb"/><path d="M301.9,698.34a1.134,1.134,0,0,1-1.2-1.2V528.6a1.2,1.2,0,1,1,2.4,0V697.139A1.134,1.134,0,0,1,301.9,698.34Z" transform="translate(-274.291 -512.755)" fill="#ebebeb"/></g></g><g transform="translate(502.68 26.593)"><path d="M263.228,40.885,239.7,27.2v6.962l23.528,13.685Zm63.622,36.733-51.618-29.77V54.81l51.618,29.53Zm-39.614-9.123L239.7,41.125v6.962l47.537,27.37Zm39.614,23.048L299,75.457v6.962L326.851,98.5Zm-39.614-9.123L239.7,55.05v6.962l47.537,27.37ZM299,96.1l27.85,16.086v-6.962L299,89.142Zm67.7,18.246-27.85-16.086v6.962l27.85,16.086ZM263.228,82.659,239.7,68.975v6.962l23.528,13.685Zm123.163,71.065-111.159-64.1v6.722l111.159,64.1ZM263.228,96.584,239.7,82.9v6.962l23.528,13.685Zm12,13.685,93.153,53.779v-6.962l-93.153-53.539Zm97.234,21.608L338.855,112.19v6.962L372.707,138.6v-6.722Zm-85.23-7.683L239.7,96.824v6.962l47.537,27.37Zm39.614,23.048L299,131.156v6.962l27.85,16.086Zm-75.387-16.806,23.528,13.685v-6.962l-23.528-13.685Zm35.773,20.407,51.618,30.011v-6.962l-51.618-29.77Zm-35.773-6.482,23.528,13.685v-6.962L251.464,137.4Zm35.773,20.407,39.854,23.048v-6.962l-39.854-23.048Zm-35.773-6.482,23.528,13.685v-6.962l-23.528-13.685Zm134.927,70.825-99.155-57.38v6.962l99.155,57.38Zm-134.927-56.9L274.992,185.9v-6.962l-23.528-13.685Zm35.773,20.647,51.618,29.77v-6.962L287.237,185.9Zm-35.773-6.722,23.528,13.685v-6.962l-23.528-13.685Zm35.773,20.647,27.85,16.086v-6.962l-27.85-16.086Zm-35.773-6.722,23.528,13.685v-6.962L251.464,193.1Zm69.384,33.132L287,213.745v6.962l33.852,19.447Zm51.618-59.541L338.855,154.2v6.962l33.852,19.447v-6.962Zm12,68.424-33.852-19.447v6.962l33.852,19.447Zm-57.62,14.405v6.962L348.7,276.167V269.2Zm63.622,92.432-15.846-9.123v6.962l15.846,9.123Zm-63.622-15.846L348.7,345.792v-6.962L326.851,326.1ZM360.7,352.514l15.846,9.123v-6.962L360.7,345.552ZM338.855,194.779l33.852,19.447v-6.962l-33.852-19.447ZM263.468,226.71,287,240.395v-6.962l-23.528-13.685ZM299,240.395v6.962l15.845,9.123v-6.962Zm-11.764,6.962-23.528-13.685v6.962l23.528,13.685ZM299,261.282l63.622,36.733v-6.962L299,254.32Zm-35.533-6.722L287,268.244v-6.962L263.468,247.6Zm122.923,64.1L299,268.244v6.962l87.391,50.418ZM263.468,268.485,287,282.169v-6.962l-23.528-13.685ZM299,282.169v6.962l93.153,53.779v-6.962Zm61.7-185.1L338.855,84.34V91.3L360.7,104.027ZM263.468,282.409,287,296.094v-6.962l-23.528-13.685ZM299,303.057l63.622,36.733v-6.962L299,296.094Zm27.85-73.466L366.7,252.639v-6.962l-39.854-23.048ZM287.237,303.3l-23.528-13.685v6.962l23.528,13.685ZM299,310.019v6.962l15.845,9.123v-6.962Zm-23.768,6.962L251.7,303.3v6.962l23.528,13.685Zm12,13.685,51.618,29.77v-6.962L287.237,323.7Zm-12,.24L251.7,317.222v6.962l23.528,13.685Zm12,13.685,39.614,23.048v-6.962L287,337.629Zm-12,.24L251.7,331.146v6.962l23.528,13.685Zm111.159,64.1-99.155-57.38v6.962l99.155,57.38ZM275.232,358.756,251.7,345.071v6.962l23.528,13.685Zm63.622,36.733-51.618-29.77v6.962l51.618,29.77Zm-87.391-29.53,23.528,13.685v-6.962L251.464,359Zm63.382,29.77L287,379.643v6.962l27.85,16.086Zm-39.614-9.123L251.7,372.921v6.962l23.528,13.685Zm45.616,26.409L287,393.568v6.962l33.852,19.447Zm63.622,8.883-33.852-19.447v6.962l33.852,19.447ZM348.7,448.788l-21.848-12.724v6.962L348.7,455.75Zm-9.844-74.426,33.612,19.687v-6.962l-33.612-19.447Zm-75.387,32.171L287,420.218v-6.962L263.468,399.57ZM299,420.218v6.962l15.845,9.123v-6.962Zm-35.533.24L287,434.143V427.18L263.468,413.5ZM299,440.865,362.623,477.6v-6.722L299,434.143Zm-35.533-6.482L287,448.067v-6.962L263.468,427.42ZM299,454.79l87.391,50.418v-6.962L299,447.827Zm-35.533-6.482L287,461.992V455.03l-23.528-13.685ZM299,468.955l93.153,53.779v-6.962L299,461.992Zm27.85-59.541L366.7,432.462V425.5l-39.854-23.048Z" transform="translate(-166.954 11.454)" fill="#ebebeb"/><path d="M263.419,38.95v6.962l5.762,3.361V42.311Zm0,20.647,5.762,3.361V56l-5.762-3.361Zm0,14.165,5.762,3.361V70.161L263.419,66.8Zm0,13.925,5.762,3.361V84.086l-5.762-3.361Zm0,13.925,5.762,3.361V98.01l-5.762-3.361Zm0,13.925,5.762,3.361v-6.962l-5.762-3.361Zm-.24,19.687,5.762,3.361v-6.962l-5.762-3.361Zm0,13.925,5.762,3.361v-6.962l-5.762-3.361Zm0,13.925,5.762,3.361v-6.962l-5.762-3.361Zm0,13.925,5.762,3.361V173.4l-5.762-3.361Zm0,13.925,5.762,3.361v-6.962l-5.762-3.361Zm0,13.925,5.762,3.361v-6.962l-5.762-3.361Zm0,19.927,5.762,3.361v-6.962l-5.762-3.361Zm0,13.925,5.762,3.361V235.1l-5.762-3.361Zm0,13.925,5.762,3.361v-6.962l-5.762-3.361Zm0,13.925,5.762,3.361v-6.962l-5.762-3.361Zm0,13.925,5.762,3.361v-6.962l-5.762-3.361Zm0,13.925,5.762,3.361V290.8l-5.762-3.361Zm0,20.647,5.762,3.361v-6.962l-5.762-3.361Zm0,13.925,5.762,3.361V325.37l-5.762-3.361Zm0,13.925,5.762,3.361V339.3l-5.762-3.361Zm0,13.925,5.762,3.361V353.22l-5.762-3.361Zm0,13.925,5.762,3.361v-6.962l-5.762-3.361Zm0,13.925,5.762,3.361V381.07l-5.762-3.361Zm0,19.687,5.762,3.361v-6.962l-5.762-3.361Zm0,13.925,5.762,3.361v-6.962l-5.762-3.361Zm0,14.165,5.762,3.361v-6.962l-5.762-3.361Zm0,13.925,5.762,3.361v-6.962l-5.762-3.361ZM209.4,25.025l12,6.962V18.062l-12-6.962Zm18.967,7.443,20.647,12V37.509l-20.647-12ZM209.4,53.115l12,6.962V46.152l-12-6.962Zm18.967,7.443,20.647,12V65.6l-20.647-12ZM209.4,80.964l12,6.962V74l-12-6.962Zm18.967,7.443,20.647,12V93.449l-20.647-12ZM209.4,108.814l12,6.962V101.852l-12-6.962Zm18.967,7.443,20.647,12V121.3l-20.647-12ZM209.4,136.664l12,6.962V129.7l-12-6.962Zm18.967,7.443,20.647,12v-6.962l-20.647-12ZM209.4,164.754l12,6.962V157.791l-12-6.962Zm18.967,7.443,20.647,12v-6.962l-20.647-12ZM209.4,192.6l12,6.962V185.641l-12-6.962Zm18.967,7.443,20.647,12v-6.962l-20.647-12ZM209.4,220.453l12,6.962V213.491l-12-6.962Zm18.967,7.683,20.647,12v-6.962l-20.647-12ZM209.4,248.543l12,6.962V241.581l-12-6.962Zm18.967,7.443,20.647,12v-6.962l-20.647-12Z" transform="translate(-209.4 -11.1)" fill="#ebebeb"/></g><g transform="translate(1507.672 776.616)"><path d="M682.068,353.185,658.54,339.5v6.962l23.528,13.685Zm63.622,36.733-51.618-29.77v6.962L745.69,396.88Zm-39.854-8.883L658.3,353.665v6.962L705.837,388Zm39.854,22.808-27.85-16.086v6.962L745.69,410.8Zm-39.854-8.883L658.3,367.59v6.962l47.537,27.37Zm12,13.685,27.85,16.086v-6.962l-27.85-16.086ZM785.3,426.891,757.455,410.8v6.962l27.85,16.086ZM682.068,395.2,658.54,381.515v6.962l23.528,13.685Zm122.923,70.825-111.159-64.1v6.962l111.159,64.1Zm-122.923-56.9L658.54,395.44V402.4l23.528,13.685Zm12,13.685,93.153,53.779v-6.962l-93.153-53.779Zm97.234,21.367L757.455,424.73v6.963l33.852,19.447Zm-85.47-7.443L658.3,409.365v6.962l47.537,27.37Zm39.854,22.808-27.85-16.086v6.962L745.69,466.5ZM670.3,442.736l23.528,13.685v-6.962L670.3,435.774Zm35.532,20.647,51.618,29.77v-6.962l-51.618-29.77ZM670.3,456.661l23.528,13.685v-6.962L670.3,449.7Zm35.532,20.647,39.854,23.048v-6.962l-39.854-23.048ZM670.3,470.586l23.528,13.685v-6.722L670.3,463.864Zm134.687,71.065-99.155-57.38v6.963l99.155,57.38ZM670.3,484.751l23.528,13.685v-6.962L670.3,477.789Zm35.532,20.407,51.618,29.77v-6.963L705.837,498.2ZM670.3,498.676l23.528,13.685V505.4L670.3,491.713Zm35.532,20.407,27.85,16.086v-6.963l-27.85-16.086ZM670.3,512.6l23.528,13.685v-6.962L670.3,505.638Zm69.384,33.132-33.852-19.447v6.962l33.852,19.447Zm51.618-59.781L757.455,466.5v6.962l33.852,19.447Zm12,68.424-33.852-19.447v6.962l33.852,19.447ZM745.69,568.78v6.962l21.848,12.724V581.5Zm63.382,92.432-15.846-9.123v6.962l15.846,9.123ZM745.69,645.367l21.848,12.724v-6.962L745.69,638.4ZM779.3,665.054l15.845,9.123v-6.962L779.3,658.092ZM757.455,507.079l33.852,19.447v-6.962l-33.852-19.447ZM682.308,539.25l23.528,13.685v-6.963l-23.528-13.685Zm35.533,13.445v6.962l15.845,9.123v-6.962Zm-12,7.2-23.528-13.685v6.962l23.528,13.685Zm12,13.685,63.622,36.733v-6.962L717.841,566.62ZM682.308,567.1l23.528,13.685v-6.962l-23.528-13.685Zm122.683,64.1L717.6,580.784v6.963l87.391,50.418ZM682.308,581.025l23.528,13.685v-6.962l-23.528-13.685Zm35.533,13.685v6.962l93.152,53.779v-6.962ZM779.3,409.365,757.455,396.64V403.6L779.3,416.327ZM682.308,594.949l23.528,13.685v-6.962l-23.528-13.685Zm35.533,20.407,63.622,36.733v-6.963l-63.622-36.733Zm27.85-73.226,39.854,23.048v-6.962L745.69,535.169ZM705.837,615.6l-23.528-13.685v6.962l23.528,13.685Zm12,6.962v6.962l15.845,9.123v-6.962Zm-23.768,6.722L670.544,615.6v6.962l23.528,13.685Zm11.764,13.925,51.618,29.77v-6.962l-51.618-29.77Zm-11.764,0-23.528-13.685v6.962l23.528,13.685Zm11.764,13.925,39.854,23.048v-6.962l-39.854-23.048Zm-11.764,0-23.528-13.685v6.962l23.528,13.685Zm110.919,64.343-99.155-57.38v6.963l99.155,57.38ZM694.073,671.3l-23.528-13.685v6.962l23.528,13.685Zm63.382,36.493-51.618-29.77v6.962l51.618,29.77ZM670.3,678.259l23.528,13.685v-6.962L670.3,671.3Zm63.382,29.77-27.85-16.086v6.962l27.85,16.086Zm-39.614-8.883-23.528-13.685v6.962l23.528,13.685Zm45.616,26.409-33.852-19.447v6.962l33.852,19.447Zm63.622,8.643-33.852-19.447v6.962l33.852,19.447Zm-35.773,27.129L745.69,748.6v6.963l21.848,12.724ZM757.455,686.9l33.852,19.447v-6.962l-33.852-19.447Zm-75.146,31.931,23.528,13.685v-6.963L682.308,711.87Zm35.533,13.685v6.963l15.845,9.123v-6.962Zm-35.533.24,23.528,13.685V739.48L682.308,725.8Zm35.533,20.647,63.622,36.733v-6.963l-63.622-36.733Zm-35.533-6.722,23.528,13.685v-6.722L682.308,739.96Zm35.533,20.647,87.391,50.418v-6.963l-87.391-50.418Zm-35.533-6.722,23.528,13.685V767.33l-23.528-13.685Zm35.533,20.647,93.152,53.779v-6.962l-93.152-53.779Zm27.85-59.541,39.854,23.048V737.8L745.69,714.751Z" transform="translate(-585.554 -301.086)" fill="#ebebeb"/><path d="M682.019,351.11v6.962l5.762,3.361v-6.962Zm0,20.887,5.762,3.361V368.4l-5.762-3.361Zm0,13.925,5.762,3.361v-6.962l-5.762-3.361Zm0,13.925,5.762,3.361v-6.962l-5.762-3.361Zm0,13.925,5.762,3.361V410.17l-5.762-3.361Zm0,13.925,5.762,3.361V424.1l-5.762-3.361Zm0,19.687,5.762,3.361v-6.962l-5.762-3.361Zm0,13.925,5.762,3.361v-6.962l-5.762-3.361Zm0,14.165,5.762,3.361v-6.962l-5.762-3.361Zm0,13.925,5.762,3.361V485.8l-5.762-3.361Zm0,13.925,5.762,3.361v-6.962l-5.762-3.361Zm0,13.925,5.762,3.361v-6.962l-5.762-3.361Zm0,19.687,5.762,3.361v-6.962l-5.762-3.361Zm0,13.925,5.762,3.361v-6.962l-5.762-3.361Zm0,13.925,5.762,3.361v-6.962l-5.762-3.361Zm0,13.925,5.762,3.361v-6.962l-5.762-3.361Zm0,13.925L687.781,596v-6.962l-5.762-3.361Zm0,13.925,5.762,3.361V603.2l-5.762-3.361Zm0,20.647,5.762,3.361v-6.962l-5.762-3.361Zm0,13.925,5.762,3.361V637.53l-5.762-3.361Zm0,13.925,5.762,3.361v-6.962l-5.762-3.361Zm0,13.925,5.762,3.361V665.62l-5.762-3.361Zm0,13.925,5.762,3.361V679.3l-5.762-3.361Zm0,14.165,5.762,3.361V693.47l-5.762-3.361Zm0,19.687,5.762,3.361v-6.962l-5.762-3.361Zm0,13.925,5.762,3.361v-6.963l-5.762-3.361Zm0,13.925,5.762,3.361v-6.962l-5.762-3.361Zm0,13.925,5.762,3.361v-6.962l-5.762-3.361ZM628,337.425l12,6.962V330.462L628,323.5Zm19.207,7.443,20.647,12v-6.962l-20.647-12ZM628,365.275l12,6.962V358.312l-12-6.962Zm19.207,7.443,20.647,12v-6.962l-20.647-12ZM628,393.124l12,6.962V386.162L628,379.2Zm19.207,7.443,20.647,12v-6.962l-20.647-12ZM628,420.974l12,6.962V414.012l-12-6.962Zm19.207,7.443,20.647,12v-6.962l-20.647-12ZM628,448.824l12,6.963V441.861L628,434.9Zm19.207,7.443,20.647,12v-6.962l-20.647-12ZM628,477.154l12,6.962V470.191l-12-6.962Zm19.207,7.443,20.647,12v-6.963l-20.647-12ZM628,505l12,6.963V498.041l-12-6.962Zm19.207,7.443,20.647,12v-6.963l-20.647-12ZM628,532.853l12,6.962V525.891l-12-6.962Zm19.207,7.443,20.647,12v-6.962l-20.647-12ZM628,560.7l12,6.963V553.741l-12-6.962Zm19.207,7.443,20.647,12v-6.962l-20.647-12Z" transform="translate(-628 -323.5)" fill="#ebebeb"/></g></g></svg>