<svg xmlns="http://www.w3.org/2000/svg" viewBox="0 0 167 154.481">
  <defs>
    <style>
      .cls-1, .cls-2 {
        fill: #fff;
      }

      @font-face {
        font-family: 'Raleway-Regular'; /* Имя шрифта */
        src: url(../fonts/Raleway-Regular.ttf); /* Путь к файлу со шрифтом */
      }

      .cls-2 {
        font-size: 14px;
        font-family: 'Helvetica';
        letter-spacing: 0.02em;
      }
    </style>
  </defs>
  <g id="Group_4238" data-name="Group 4238" transform="translate(-161 -679.94)">
    <g id="Group_4236" data-name="Group 4236" transform="translate(191.7 680.266)">
      <path id="Path_33830" data-name="Path 33830" class="cls-1" d="M95.041,69.187a6.419,6.419,0,0,0-.247.658c-.165.549-.357,1.07-.549,1.591a30.4,30.4,0,0,1-1.618,3.621,41.507,41.507,0,0,1-3.538,5.486c-.96,1.262-2,2.441-3.072,3.593a44.76,44.76,0,0,1-4.636,4.2,50.574,50.574,0,0,1-6.2,4.252,48.837,48.837,0,0,1-7.571,3.566,53.88,53.88,0,0,1-6.2,1.893,45.268,45.268,0,0,1-8.147,1.207,32.959,32.959,0,0,1-3.676.165c-1.947-.082-3.868-.192-5.788-.439a50.592,50.592,0,0,1-8.284-1.755,48.565,48.565,0,0,1-6.281-2.414A46.082,46.082,0,0,1,20.9,89.923a40.956,40.956,0,0,1-3.621-2.908,34.733,34.733,0,0,1-3.1-2.935c-1.07-1.179-2.139-2.359-3.127-3.593-.878-1.1-1.7-2.222-2.469-3.4A47.078,47.078,0,0,1,6.005,72.7a51.816,51.816,0,0,1-2.359-5.184A47.922,47.922,0,0,1,1.452,60.19c-.219-.987-.439-1.975-.576-2.99-.137-.96-.247-1.947-.357-2.908A55.92,55.92,0,0,1,.3,47.518a20.869,20.869,0,0,1,.219-2.606c.055-.384.082-.768.11-1.125.082-.96.219-1.893.384-2.825.274-1.481.85-3.895,1.289-5.349a50.325,50.325,0,0,1,2.112-5.9,54.325,54.325,0,0,1,3.758-7.049c.823-1.289,1.7-2.5,2.633-3.7.741-.96,2.03-2.469,2.853-3.374.549-.6,1.1-1.234,1.7-1.783.878-.823,1.783-1.618,2.688-2.414,1.262-1.07,2.551-2.057,3.895-2.99A45.248,45.248,0,0,1,26.193,5.8c.713-.384,1.426-.768,2.167-1.125a52.42,52.42,0,0,1,8.613-3.237A46.572,46.572,0,0,1,43.611.12c1.426-.192,2.825-.3,4.252-.357,1.015-.055,2.057-.11,3.072-.082a54.145,54.145,0,0,1,11.3,1.536A53.3,53.3,0,0,1,70.6,4.207a55.437,55.437,0,0,1,10.121,6.034,43.445,43.445,0,0,1,9.052,8.887,33.263,33.263,0,0,1,3.73,6.5,2.846,2.846,0,0,1,.11.274A40.108,40.108,0,0,0,62.126,10.927c-21.889,0-39.608,17.061-39.608,38.1,0,18.131,13.166,33.327,30.831,37.167a38.739,38.739,0,0,0,7.571,1.07,37.846,37.846,0,0,0,11.356-1.289,32.454,32.454,0,0,0,3.154-1.015c.905-.329,1.81-.713,2.716-1.125a39.452,39.452,0,0,0,8.723-5.458,24.87,24.87,0,0,0,2.359-2.112A36.172,36.172,0,0,0,94.3,69.79c.165-.274.329-.521.494-.8.027-.055.082-.137.192-.055C95.014,69.05,95.068,69.132,95.041,69.187Z"/>
      <path id="Path_33831" data-name="Path 33831" class="cls-1" d="M144.809,70.2a30.323,30.323,0,1,0,30.309,30.337A30.319,30.319,0,0,0,144.809,70.2Zm-23.864,35.3h0a15.537,15.537,0,0,1-1.042-5.541h0v-.137a15.078,15.078,0,0,1,.357-3.182v-.027a15.1,15.1,0,0,1,1.4-3.813,15.41,15.41,0,1,1-.713,12.7Zm14.373,12.1a17.637,17.637,0,1,0,0-35.274,17.287,17.287,0,0,0-4.773.658,19.685,19.685,0,1,1-3.7,32.476A17.985,17.985,0,0,0,135.319,117.6Zm9.491,7.269a24.139,24.139,0,0,1-7.077-1.042q.946.082,1.893.082a23.452,23.452,0,1,0,0-46.9c-.439,0-.85,0-1.262.027a23.951,23.951,0,0,1,6.473-.878,24.357,24.357,0,1,1-.027,48.715Z" transform="translate(-82.876 -51.182)"/>
    </g>
    <g id="Group_4237" data-name="Group 4237" transform="translate(166 805.245)">
      <path id="Path_33832" data-name="Path 33832" class="cls-1" d="M3.253,4.712v5.715h7.912l-.029.264a7.667,7.667,0,0,0-.029,2.169l.059.557H3.253V25.372h8.792l.557,3.282H0V1.4l12.6.088L11.9,4.8Z" transform="translate(0 -1.06)"/>
      <path id="Path_33833" data-name="Path 33833" class="cls-1" d="M90.133,23.543a14.97,14.97,0,0,0,1.407-2.725,29.882,29.882,0,0,1-.557-5.861,33.03,33.03,0,0,1,.381-4.865A14.417,14.417,0,1,0,88.346,25.77c1.729,1.348,3.341,1.993,3.78,1.465C92.6,26.708,91.306,24.832,90.133,23.543ZM87.672,21.55c-1-.527-1.582-.322-1.934.088-.381.44-.44,1,.322,1.963a11.252,11.252,0,1,1,3.282-7.942A11.784,11.784,0,0,1,87.672,21.55Z" transform="translate(-45.032 -0.99)"/>
      <path id="Path_33834" data-name="Path 33834" class="cls-1" d="M196.067,1V19.023a11.925,11.925,0,0,1-23.767,0V1h3.839V18.583a8.062,8.062,0,0,0,16.118,0V1Z" transform="translate(-121.807 -0.778)"/>
      <rect id="Rectangle_222" data-name="Rectangle 222" class="cls-1" width="3.868" height="28.631" transform="translate(77.073 0.222)"/>
      <path id="Path_33835" data-name="Path 33835" class="cls-1" d="M336.493,11.241V28.854h-3.839V11.27a7.964,7.964,0,0,0-7.619-7.854q-.879-1.758-1.934-3.429A12.288,12.288,0,0,1,324.565-.1a11.678,11.678,0,0,1,11.9,10.931A2.075,2.075,0,0,1,336.493,11.241Z" transform="translate(-228.414)"/>
      <path id="Path_33836" data-name="Path 33836" class="cls-1" d="M293.98,2.17a10.972,10.972,0,0,0-1.612,1.2V.5H288.5V29.131h.059v.147H292.4V11.695a7.805,7.805,0,0,1,3.487-6.476" transform="translate(-203.954 -0.424)"/>
      <path id="Path_33837" data-name="Path 33837" class="cls-1" d="M396.589.5a14.294,14.294,0,0,0-7.766,2.286c.293,1.231.527,2.52.733,3.78a10.837,10.837,0,1,1,7.033,19.078,10.729,10.729,0,0,1-7-2.579c-.205,1.319-.469,2.637-.762,3.927A14.385,14.385,0,1,0,396.589.5Zm-9.524,9.173a43.685,43.685,0,0,0-.733-4.835A14.371,14.371,0,0,0,382.2,14.918a14.223,14.223,0,0,0,4.1,10.052c.322-1.641.586-3.282.762-4.982a10.871,10.871,0,0,1-1.319-5.158,10.543,10.543,0,0,1,1.319-5.158Z" transform="translate(-270.195 -0.424)"/>
      <path id="Path_33838" data-name="Path 33838" class="cls-1" d="M464.188,52.3l2.344,3.282L457.77,66.044H452.7l.909-1.084a15.27,15.27,0,0,0,7.619-9.143Z" transform="translate(-320.035 -37.044)"/>
      <path id="Path_33839" data-name="Path 33839" class="cls-1" d="M483.666,29.071h-4.747l-6.975-9.729h0l-4.4-6.154h0L464.94,9.554a15.25,15.25,0,0,0-5.187-7.268L458.2,0h4.718l7.18,10.052.908,1.26.176.264,2.344,3.282h0Z" transform="translate(-323.923 -0.071)"/>
      <path id="Path_33840" data-name="Path 33840" class="cls-1" d="M506.744,14.184,504.4,10.9,513.514,0h5.07Z" transform="translate(-356.584 -0.071)"/>
    </g>
    <text id="_Розроблено_командою" data-name=" Розроблено командою" class="cls-2" transform="translate(161 800)"><tspan x="0" y="0" xml:space="preserve"> Розроблено командою</tspan></text>
  </g>
</svg>
