<svg xmlns="http://www.w3.org/2000/svg" viewBox="0 0 254.144 26.774">
  <defs>
    <style>
      .cls-1, .cls-2 {
        fill: #62881d;
      }

      .cls-2 {
        font-size: 14px;
        font-family: Raleway-Regular, Raleway;
        letter-spacing: 0.006em;
      }
    </style>
  </defs>
  <g id="Group_4239" data-name="Group 4239" transform="translate(-38 -442.926)">
    <g id="Group_4236" data-name="Group 4236" transform="translate(37.7 443.253)">
      <path id="Path_33830" data-name="Path 33830" class="cls-1" d="M25.727,18.329a1.723,1.723,0,0,0-.066.177c-.044.147-.1.287-.147.427a8.159,8.159,0,0,1-.434.972,11.14,11.14,0,0,1-.95,1.472c-.258.339-.537.655-.824.964a12.013,12.013,0,0,1-1.244,1.126A13.573,13.573,0,0,1,20.4,24.609a13.107,13.107,0,0,1-2.032.957,14.46,14.46,0,0,1-1.664.508,12.149,12.149,0,0,1-2.186.324,8.846,8.846,0,0,1-.986.044c-.523-.022-1.038-.052-1.553-.118a13.578,13.578,0,0,1-2.223-.471,13.034,13.034,0,0,1-1.686-.648,12.368,12.368,0,0,1-2.238-1.31,10.992,10.992,0,0,1-.972-.78,9.322,9.322,0,0,1-.832-.788c-.287-.317-.574-.633-.839-.964-.236-.294-.456-.6-.663-.913a12.635,12.635,0,0,1-.692-1.178A13.906,13.906,0,0,1,1.2,17.88a12.861,12.861,0,0,1-.589-1.966c-.059-.265-.118-.53-.155-.8s-.066-.523-.1-.78A15.008,15.008,0,0,1,.3,12.514a5.6,5.6,0,0,1,.059-.7c.015-.1.022-.206.029-.3.022-.258.059-.508.1-.758.074-.4.228-1.045.346-1.435A13.506,13.506,0,0,1,1.4,7.736,14.58,14.58,0,0,1,2.413,5.844c.221-.346.456-.67.707-.994.2-.258.545-.663.766-.905.147-.162.294-.331.456-.478.236-.221.478-.434.721-.648.339-.287.685-.552,1.045-.8a12.144,12.144,0,0,1,1.141-.7c.191-.1.383-.206.582-.3A14.068,14.068,0,0,1,10.142.146a12.5,12.5,0,0,1,1.781-.353c.383-.052.758-.081,1.141-.1.272-.015.552-.029.824-.022a14.532,14.532,0,0,1,3.033.412,14.3,14.3,0,0,1,2.245.8,14.878,14.878,0,0,1,2.716,1.62,11.66,11.66,0,0,1,2.429,2.385,8.927,8.927,0,0,1,1,1.745.764.764,0,0,1,.029.074,10.764,10.764,0,0,0-8.451-4.019A10.432,10.432,0,0,0,6.263,12.919a10.325,10.325,0,0,0,8.274,9.975,10.4,10.4,0,0,0,2.032.287,10.157,10.157,0,0,0,3.048-.346,8.71,8.71,0,0,0,.847-.272c.243-.088.486-.191.729-.3A10.588,10.588,0,0,0,23.533,20.8a6.674,6.674,0,0,0,.633-.567,9.708,9.708,0,0,0,1.362-1.737c.044-.074.088-.14.133-.213.007-.015.022-.037.052-.015C25.719,18.293,25.734,18.315,25.727,18.329Z"/>
      <path id="Path_33831" data-name="Path 33831" class="cls-1" d="M122.634,70.2a8.138,8.138,0,1,0,8.134,8.142A8.137,8.137,0,0,0,122.634,70.2Zm-6.4,9.474h0a4.17,4.17,0,0,1-.28-1.487h0V78.15a4.047,4.047,0,0,1,.1-.854v-.007a4.053,4.053,0,0,1,.375-1.023,4.136,4.136,0,1,1-.191,3.408Zm3.857,3.246a4.733,4.733,0,1,0,0-9.467,4.64,4.64,0,0,0-1.281.177,5.283,5.283,0,1,1-.994,8.716A4.827,4.827,0,0,0,120.087,82.921Zm2.547,1.951a6.478,6.478,0,0,1-1.9-.28q.254.022.508.022a6.294,6.294,0,1,0,0-12.588c-.118,0-.228,0-.339.007a6.428,6.428,0,0,1,1.737-.236,6.537,6.537,0,1,1-.007,13.074Z" transform="translate(-105.793 -65.335)"/>
    </g>
    <g id="Group_4237" data-name="Group 4237" transform="translate(225 450.387)">
      <path id="Path_33832" data-name="Path 33832" class="cls-1" d="M1.348,2.773V5.141H4.628l-.012.109a3.178,3.178,0,0,0-.012.9l.024.231H1.348v4.956H4.992l.231,1.36H0V1.4l5.223.036L4.931,2.809Z" transform="translate(0 -1.318)"/>
      <path id="Path_33833" data-name="Path 33833" class="cls-1" d="M74.656,10.519a6.205,6.205,0,0,0,.583-1.13,12.385,12.385,0,0,1-.231-2.429,13.689,13.689,0,0,1,.158-2.016,5.975,5.975,0,1,0-1.251,6.5c.717.559,1.385.826,1.567.607S75.142,11.053,74.656,10.519Zm-1.02-.826c-.413-.219-.656-.134-.8.036s-.182.413.134.814a4.664,4.664,0,1,1,1.36-3.292A4.884,4.884,0,0,1,73.636,9.693Z" transform="translate(-55.963 -1.23)"/>
      <path id="Path_33834" data-name="Path 33834" class="cls-1" d="M182.15,1V8.47a4.942,4.942,0,0,1-9.85,0V1h1.591V8.288a3.341,3.341,0,0,0,6.68,0V1Z" transform="translate(-151.372 -0.966)"/>
      <rect id="Rectangle_222" data-name="Rectangle 222" class="cls-1" width="1.603" height="11.867" transform="translate(31.944 0.034)"/>
      <path id="Path_33835" data-name="Path 33835" class="cls-1" d="M328.651,4.6v7.3H327.06V4.613A3.3,3.3,0,0,0,323.9,1.358q-.364-.729-.8-1.421a5.092,5.092,0,0,1,.607-.036,4.84,4.84,0,0,1,4.931,4.53A.86.86,0,0,1,328.651,4.6Z" transform="translate(-283.856 0)"/>
      <path id="Path_33836" data-name="Path 33836" class="cls-1" d="M290.771,1.192a4.548,4.548,0,0,0-.668.5V.5h-1.6V12.367h.024v.061h1.591V5.14a3.235,3.235,0,0,1,1.445-2.684" transform="translate(-253.459 -0.527)"/>
      <path id="Path_33837" data-name="Path 33837" class="cls-1" d="M388.164.5a5.924,5.924,0,0,0-3.219.947c.122.51.219,1.045.3,1.567a4.492,4.492,0,1,1,2.915,7.907,4.447,4.447,0,0,1-2.9-1.069c-.085.547-.194,1.093-.316,1.628A5.962,5.962,0,1,0,388.164.5Zm-3.947,3.8a18.1,18.1,0,0,0-.3-2A5.956,5.956,0,0,0,382.2,6.476a5.9,5.9,0,0,0,1.7,4.166c.134-.68.243-1.36.316-2.065a4.506,4.506,0,0,1-.547-2.138,4.37,4.37,0,0,1,.547-2.138Z" transform="translate(-335.778 -0.527)"/>
      <path id="Path_33838" data-name="Path 33838" class="cls-1" d="M457.461,52.3l.972,1.36L454.8,58h-2.1l.377-.449a6.329,6.329,0,0,0,3.158-3.79Z" transform="translate(-397.715 -46.035)"/>
      <path id="Path_33839" data-name="Path 33839" class="cls-1" d="M468.755,12.049h-1.968L463.9,8.016h0l-1.822-2.551h0L460.994,3.96a6.32,6.32,0,0,0-2.15-3.012L458.2,0h1.956l2.976,4.166.376.522.073.109.972,1.36h0Z" transform="translate(-402.547 -0.088)"/>
      <path id="Path_33840" data-name="Path 33840" class="cls-1" d="M505.372,5.879l-.972-1.36L508.178,0h2.1Z" transform="translate(-443.135 -0.088)"/>
    </g>
    <text id="_Розроблено_командою" data-name=" Розроблено командою" class="cls-2" transform="translate(64 462)"><tspan x="0" y="0" xml:space="preserve"> Розроблено командою</tspan></text>
  </g>
</svg>
