<svg xmlns="http://www.w3.org/2000/svg" width="75.983" height="73.701" viewBox="0 0 75.983 73.701"><g transform="translate(0 0.003)" opacity="0.581"><path d="M74.484,40.4,37.96,59.135,1.5,40.4" transform="translate(0 -14.251)" fill="none" stroke="#000" stroke-miterlimit="10" stroke-width="3"/><path d="M74.484,26.149,37.96,1.8,1.5,26.149v43.9A2.127,2.127,0,0,0,3.645,72.2H72.339a2.127,2.127,0,0,0,2.145-2.145Z" fill="none" stroke="#000" stroke-miterlimit="10" stroke-width="3"/><g transform="translate(26.921 45.451)"><path d="M41.8,71l9.084,4.668a4.551,4.551,0,0,0,3.911,0L63.878,71" transform="translate(-41.8 -71)" fill="none" stroke="#000" stroke-linecap="round" stroke-miterlimit="10" stroke-width="3"/></g><path d="M67.106,46.741V32.8H29.7V46.741" transform="translate(-10.411 -11.445)" fill="none" stroke="#000" stroke-miterlimit="10" stroke-width="3"/><line x2="21.132" transform="translate(27.426 28.104)" fill="none" stroke="#000" stroke-miterlimit="10" stroke-width="3"/><line x2="21.132" transform="translate(27.426 33.655)" fill="none" stroke="#000" stroke-miterlimit="10" stroke-width="3"/></g></svg>