<svg xmlns="http://www.w3.org/2000/svg" width="73.952" height="73.992" viewBox="0 0 73.952 73.992"><path d="M71.2,58.017,59.579,46.4a4.147,4.147,0,0,0-5.879,0l-5.808,5.808a4.317,4.317,0,0,1-5.454.637A68.011,68.011,0,0,1,20.975,31.455,4.484,4.484,0,0,1,21.613,26l5.879-5.879a4.147,4.147,0,0,0,0-5.879L15.875,2.7A4.147,4.147,0,0,0,10,2.7L3.125,9.568A5.5,5.5,0,0,0,1.85,15.447a95.123,95.123,0,0,0,56.6,56.6,5.634,5.634,0,0,0,5.879-1.275L71.2,63.9A4.281,4.281,0,0,0,71.2,58.017Z" transform="translate(0.088 0.025)" fill="none" stroke="#000" stroke-linecap="round" stroke-linejoin="round" stroke-miterlimit="10" stroke-width="3" opacity="0.542"/></svg>